For English, please scroll down!

************************************************************
The Crimson Pirate 1952

Verenigde Staten - 105 minuten. Geregisseerd door Robert Siodmak. Met Burt Lancaster, Nick Cravat en Eva Bartok.

De piratenkapitein Vallo zwaait de plak over de Carribische wateren. Vandaag neemt hij een militair schip in, met aan boord de afgevaardigde van de koning, baron Grudo. De boot had bestemming Cobra, een eilandje waar de bevolking onder leiding van El Libre in opstand is gekomen. Grudo moet er de rebellenleider gaan uitschakelen. De piraat ruikt een gouden zaak en gooit het op een akkoordje. Hij zal El Libre in de val lokken en uitleveren op voorwaarde dat hij de buitgemaakte wapens aan de rebellen mag verkopen. De vraag is of de piraat zich aan de afspraak zal houden.

Taal: Engels, 1-kanaals
Ondertitelingen: Nederlands.
Categorie : Beeld 
Formaat : DVD5 
Bron : Retail
Genre : Avontuur, actie
Weblink : http://www.imdb.com/title/tt0044517/

************************************************************
USA - 105 minutes. Directed by Robert Siodmak. With Burt Lancaster, Nick Cravat & Eva Bartok

Burt Lancaster plays a pirate with a taste for intrigue and acrobatics who involves himself in the goings on of a revolution in the Caribbean in the late 1700s. A light hearted adventure involving prison breaks, an oddball Scientist, sailing ships, naval fights, and tons of swordplay.

Language: English, 1 channel.
Subtitles: Dutch
Category : Movie 
Format : DVD5
Source : Retail
Genre : Adventure, action
Weblink : http://www.imdb.com/title/tt0044517/ 


Video and Audio information:
******************************
Video
ID                               : 224 (0xE0)
Format                           : MPEG Video
Format version                   : Version 2
Format profile                   : Main@Main
Format settings, BVOP            : Yes
Format settings, Matrix          : Default
Duration                         : 26mn 35s
Bit rate mode                    : Variable
Bit rate                         : 5 083 Kbps
Nominal bit rate                 : 9 616 Kbps
Width                            : 720 pixels
Height                           : 576 pixels
Display aspect ratio             : 4:3
Frame rate                       : 24.000 fps
Standard                         : PAL
Color space                      : YUV
Chroma subsampling               : 4:2:0
Bit depth                        : 8 bits
Scan type                        : Progressive
Scan order                       : 2:2:2:2:2:2:2:2:2:2:2:3 Pulldown
Bits/(Pixel*Frame)               : 0.511
Stream size                      : 967 MiB (94%)

Audio
ID                               : 128 (0x80)
Format                           : AC-3
Format/Info                      : Audio Coding 3
Mode extension                   : CM (complete main)
Duration                         : 26mn 35s
Bit rate mode                    : Constant
Bit rate                         : 192 Kbps
Channel(s)                       : 1 channel
Channel positions                : Front: C
Sampling rate                    : 48.0 KHz
Bit depth                        : 16 bits
Stream size                      : 36.5 MiB (4%)

******************************

Hornigold TBS